<svg data-v-423bf9ae="" xmlns="http://www.w3.org/2000/svg" viewBox="0 0 152 90" class="iconLeft"><!----><!----><!----><g data-v-423bf9ae="" id="4a66ca8a-f041-4a4c-9525-8ed8322232bb" fill="black" transform="matrix(6.1224488604322,0,0,6.1224488604322,100.32652885364722,-10.714282615539318)"><path d="M1.69 14L1.69 14Q1.58 14 1.58 13.89L1.58 13.89L1.58 4.31L1.58 4.31Q1.58 4.20 1.69 4.20L1.69 4.20L1.92 4.20L1.92 4.20Q2.02 4.20 2.04 4.27L2.04 4.27L4.97 8.83L4.97 8.83Q4.98 8.85 5.00 8.85L5.00 8.85L5.00 8.85Q5.01 8.85 5.03 8.83L5.03 8.83L7.97 4.27L7.97 4.27Q8.01 4.20 8.09 4.20L8.09 4.20L8.32 4.20L8.32 4.20Q8.43 4.20 8.43 4.31L8.43 4.31L8.43 13.89L8.43 13.89Q8.43 14 8.32 14L8.32 14L8.12 14L8.12 14Q8.01 14 8.01 13.89L8.01 13.89L8.01 5.07L8.01 5.07Q8.01 5.04 7.99 5.03L7.99 5.03L7.99 5.03Q7.97 5.03 7.95 5.05L7.95 5.05L5.22 9.32L5.22 9.32Q5.19 9.39 5.10 9.39L5.10 9.39L4.94 9.39L4.94 9.39Q4.86 9.39 4.82 9.32L4.82 9.32L2.06 5.05L2.06 5.05Q2.04 5.03 2.02 5.03L2.02 5.03L2.02 5.03Q2.00 5.04 2.00 5.07L2.00 5.07L2.00 13.89L2.00 13.89Q2.00 14 1.89 14L1.89 14L1.69 14Z"></path></g><!----><g data-v-423bf9ae="" id="d8342713-2dc5-4b2a-acf9-520e3efc7e16" transform="matrix(1,0,0,1,-5,-5)" stroke="none" fill="black"><path d="M50 5C25.2 5 5 25.1 5 50s20.2 45 45 45 45-20.1 45-45S74.8 5 50 5zm0 84.4c-7.2 0-14-2-19.8-5.4l19.6-34 19.7 34.2c-5.8 3.3-12.4 5.2-19.5 5.2zm16.6-45.3c-4.6 0-8.4-3.7-8.4-8.4 0-4.6 3.7-8.4 8.4-8.4s8.5 3.7 8.4 8.4c0 4.6-3.7 8.4-8.4 8.4z"></path></g><!----></svg>