<svg data-v-fde0c5aa="" xmlns="http://www.w3.org/2000/svg" viewBox="0 0 300 300" class="font"><!----><defs data-v-fde0c5aa=""><linearGradient data-v-fde0c5aa="" gradientTransform="rotate(25)" id="3fad9eea-e3de-43b5-95c6-415d582d1cfb" x1="0%" y1="0%" x2="100%" y2="0%"><stop data-v-fde0c5aa="" offset="0%" stop-color="#410FF8" stop-opacity="1"></stop><stop data-v-fde0c5aa="" offset="100%" stop-color="#410FF8" stop-opacity="1"></stop></linearGradient></defs><rect data-v-fde0c5aa="" fill="url(#3fad9eea-e3de-43b5-95c6-415d582d1cfb)" x="0" y="0" width="300px" height="300px" class="logo-background-square"></rect><defs data-v-fde0c5aa=""><!----></defs><g data-v-fde0c5aa="" id="7f651fbb-e1b0-445f-a46e-872d36765f15" fill="#ffffff" transform="matrix(22.448979154918064,0,0,22.448979154918064,37.64285676055331,-54.28570816885289)"><path d="M1.69 14L1.69 14Q1.58 14 1.58 13.89L1.58 13.89L1.58 4.31L1.58 4.31Q1.58 4.20 1.69 4.20L1.69 4.20L1.92 4.20L1.92 4.20Q2.02 4.20 2.04 4.27L2.04 4.27L4.97 8.83L4.97 8.83Q4.98 8.85 5.00 8.85L5.00 8.85L5.00 8.85Q5.01 8.85 5.03 8.83L5.03 8.83L7.97 4.27L7.97 4.27Q8.01 4.20 8.09 4.20L8.09 4.20L8.32 4.20L8.32 4.20Q8.43 4.20 8.43 4.31L8.43 4.31L8.43 13.89L8.43 13.89Q8.43 14 8.32 14L8.32 14L8.12 14L8.12 14Q8.01 14 8.01 13.89L8.01 13.89L8.01 5.07L8.01 5.07Q8.01 5.04 7.99 5.03L7.99 5.03L7.99 5.03Q7.97 5.03 7.95 5.05L7.95 5.05L5.22 9.32L5.22 9.32Q5.19 9.39 5.10 9.39L5.10 9.39L4.94 9.39L4.94 9.39Q4.86 9.39 4.82 9.32L4.82 9.32L2.06 5.05L2.06 5.05Q2.04 5.03 2.02 5.03L2.02 5.03L2.02 5.03Q2.00 5.04 2.00 5.07L2.00 5.07L2.00 13.89L2.00 13.89Q2.00 14 1.89 14L1.89 14L1.69 14Z"></path></g><!----><!----></svg>